<mxfile host="426451c9-a433-41e3-a70b-fed43c569d59" modified="2020-07-21T10:12:26.717Z" agent="5.0 (Windows NT 10.0; Win64; x64) AppleWebKit/537.36 (KHTML, like Gecko) Code/1.47.2 Chrome/78.0.3904.130 Electron/7.3.2 Safari/537.36" etag="NErHuB2SBXEiX4gv7fIo" version="13.1.3">
    <diagram id="6hGFLwfOUW9BJ-s0fimq" name="Page-1">
        <mxGraphModel dx="1151" dy="791" grid="1" gridSize="12" guides="1" tooltips="1" connect="1" arrows="1" fold="1" page="1" pageScale="1" pageWidth="827" pageHeight="1169" math="0" shadow="0">
            <root>
                <mxCell id="0"/>
                <mxCell id="1" parent="0"/>
                <mxCell id="3" value="MUSIC ORDER" style="rounded=0;whiteSpace=wrap;html=1;fontSize=20;" vertex="1" parent="1">
                    <mxGeometry x="48" y="36" width="720" height="60" as="geometry"/>
                </mxCell>
                <mxCell id="4" value="MUSIC FILE INFO GETTER" style="rounded=0;whiteSpace=wrap;html=1;" vertex="1" parent="1">
                    <mxGeometry x="48" y="561" width="120" height="63" as="geometry"/>
                </mxCell>
                <mxCell id="8" value="MUSIC FILE LIST TREE" style="rounded=0;whiteSpace=wrap;html=1;" vertex="1" parent="1">
                    <mxGeometry x="192" y="564" width="120" height="60" as="geometry"/>
                </mxCell>
                <mxCell id="12" value="DIRECT MAKER" style="rounded=0;whiteSpace=wrap;html=1;" vertex="1" parent="1">
                    <mxGeometry x="192" y="372" width="120" height="60" as="geometry"/>
                </mxCell>
                <mxCell id="14" value="WEB STORAGE" style="rounded=0;whiteSpace=wrap;html=1;" vertex="1" parent="1">
                    <mxGeometry x="336" y="564" width="120" height="60" as="geometry"/>
                </mxCell>
                <mxCell id="15" value="MUSIC FILE DATA" style="rounded=0;whiteSpace=wrap;html=1;" vertex="1" parent="1">
                    <mxGeometry x="48" y="660" width="720" height="60" as="geometry"/>
                </mxCell>
                <mxCell id="20" value="VIEW" style="rounded=0;whiteSpace=wrap;html=1;" vertex="1" parent="1">
                    <mxGeometry x="48" y="276" width="720" height="60" as="geometry"/>
                </mxCell>
                <mxCell id="21" value="CONTROL" style="rounded=0;whiteSpace=wrap;html=1;" vertex="1" parent="1">
                    <mxGeometry x="48" y="468" width="720" height="60" as="geometry"/>
                </mxCell>
                <mxCell id="22" value="FILE COPYER" style="rounded=0;whiteSpace=wrap;html=1;" vertex="1" parent="1">
                    <mxGeometry x="336" y="372" width="120" height="60" as="geometry"/>
                </mxCell>
                <mxCell id="23" value="FILE SCANER" style="rounded=0;whiteSpace=wrap;html=1;fontSize=12;" vertex="1" parent="1">
                    <mxGeometry x="48" y="372" width="120" height="60" as="geometry"/>
                </mxCell>
            </root>
        </mxGraphModel>
    </diagram>
</mxfile>